<svg xmlns="http://www.w3.org/2000/svg" width="800" height="812" viewBox="0 0 800 812">
  <rect width="800" height="812" fill="#e7dfdb"/>
  <rect x="3" y="31" width="794" height="778" fill="#ddd3cf" stroke="#2f3338" stroke-width="2"/>
  <text x="20" y="23" font-family="Segoe UI, Arial, sans-serif" font-size="28" fill="#222">PC1</text>
  <circle cx="11" cy="15" r="7" fill="#2f7f4f"/>
  <polygon points="18,16 29,12 24,25" fill="#c58b29"/>
  <rect x="16" y="52" width="109" height="42" fill="#2f3338" stroke="#f4f4f4" stroke-width="1"/>
  <rect x="127" y="52" width="92" height="42" fill="#2f3338" stroke="#f4f4f4" stroke-width="1"/>
  <rect x="221" y="52" width="109" height="42" fill="#2f3338" stroke="#f4f4f4" stroke-width="1"/>
  <rect x="332" y="52" width="151" height="42" fill="#2f3338" stroke="#f4f4f4" stroke-width="1"/>
  <rect x="485" y="52" width="131" height="42" fill="#2f3338" stroke="#f4f4f4" stroke-width="1"/>
  <rect x="221" y="49" width="109" height="45" fill="#e7dfdb" stroke="#f4f4f4" stroke-width="1"/>
  <text x="31" y="79" font-family="Segoe UI, Arial, sans-serif" font-size="18" fill="#fff">Physical</text>
  <text x="149" y="79" font-family="Segoe UI, Arial, sans-serif" font-size="18" fill="#fff">Config</text>
  <text x="243" y="79" font-family="Segoe UI, Arial, sans-serif" font-size="18" fill="#111">Desktop</text>
  <text x="345" y="79" font-family="Segoe UI, Arial, sans-serif" font-size="18" fill="#fff">Programming</text>
  <text x="510" y="79" font-family="Segoe UI, Arial, sans-serif" font-size="18" fill="#fff">Attributes</text>
  <rect x="16" y="92" width="768" height="39" fill="#2f3338"/>
  <text x="30" y="118" font-family="Segoe UI, Arial, sans-serif" font-size="18" fill="#fff">Command Prompt</text>
  <rect x="30" y="145" width="740" height="640" fill="#000"/>
  <g font-family="Consolas, 'Courier New', monospace" font-size="24" fill="#ffffff">
    <text x="37" y="199">C:\&gt;ftp file.services.local</text>
    <text x="37" y="232">Trying to connect...file.services.local</text>
    <text x="37" y="265">Connected to file.services.local</text>
    <text x="37" y="298">220- Welcome to PT Ftp server</text>
    <text x="37" y="331">Username:hr</text>
    <text x="37" y="364">331- Username ok, need password</text>
    <text x="37" y="397">Password:**</text>
    <text x="37" y="430">230- Logged in</text>
    <text x="37" y="463">(passive mode On)</text>
    <text x="37" y="496">ftp&gt;</text>
    <text x="37" y="561">C:\&gt;ping file.services.local</text>
    <text x="37" y="627">Pinging 192.168.40.1 with 32 bytes of data:</text>
    <text x="37" y="690">Reply from 192.168.10.252: Destination host unreachable.</text>
    <text x="37" y="723">Reply from 192.168.10.252: Destination host unreachable.</text>
    <text x="37" y="756">Reply from 192.168.10.252: Destination host unreachable.</text>
  </g>
</svg>
